<svg width="209" height="227" viewBox="0 0 209 227" fill="none" xmlns="http://www.w3.org/2000/svg">
<rect width="200" height="200" rx="100" fill="#272727"/>
<path d="M36.0176 85.8154C37.8796 85.8154 39.7057 86.0303 41.4961 86.46C43.3223 86.8896 45.0589 87.5342 46.7061 88.3936C48.3532 89.2171 49.8034 90.3271 51.0566 91.7236C52.3457 93.1201 53.0439 94.7852 53.1514 96.7188V98.9746V116.108C52.9365 118.257 51.7549 119.421 49.6064 119.6C48.6038 119.6 47.7266 119.277 46.9746 118.633C46.2585 117.952 45.9004 117.111 45.9004 116.108V98.3838C45.8288 97.2738 45.3991 96.3607 44.6113 95.6445C43.8594 94.8926 43 94.3018 42.0332 93.8721C41.1022 93.4424 40.1175 93.1201 39.0791 92.9053C38.0765 92.6904 37.056 92.583 36.0176 92.583C34.9792 92.583 33.9408 92.6904 32.9023 92.9053C31.8997 93.1201 30.915 93.4424 29.9482 93.8721C29.0173 94.3018 28.1579 94.8926 27.3701 95.6445C26.6182 96.3607 26.2064 97.2738 26.1348 98.3838V116.108C25.9557 118.257 24.792 119.421 22.6436 119.6C21.641 119.6 20.7637 119.277 20.0117 118.633C19.2956 117.952 18.9375 117.111 18.9375 116.108V98.9746V96.7188C19.0449 94.7852 19.7253 93.1201 20.9785 91.7236C22.2318 90.3271 23.682 89.2171 25.3291 88.3936C26.9762 87.5342 28.695 86.8896 30.4854 86.46C32.3115 86.0303 34.1556 85.8154 36.0176 85.8154ZM88.7617 87.2656C90.5879 87.3014 92.2171 87.8743 93.6494 88.9844C95.0817 90.0944 96.2275 91.4193 97.0869 92.959C97.9821 94.4987 98.6445 96.1279 99.0742 97.8467C99.5039 99.5654 99.7188 101.32 99.7188 103.11C99.7188 105.474 99.3428 107.801 98.5908 110.093C97.8747 112.349 96.6751 114.354 94.9922 116.108C93.3451 117.863 91.2682 118.812 88.7617 118.955H70.0166C67.5101 118.848 65.4154 117.917 63.7324 116.162C62.0495 114.408 60.8499 112.384 60.1338 110.093C59.4535 107.801 59.1133 105.474 59.1133 103.11C59.1133 100.747 59.4714 98.4375 60.1875 96.1816C60.9036 93.89 62.0853 91.8669 63.7324 90.1123C65.4154 88.3219 67.5101 87.373 70.0166 87.2656H71.0371H87.7412H88.7617ZM86.9355 111.758C88.2962 111.686 89.4242 111.185 90.3193 110.254C91.2503 109.287 91.9128 108.177 92.3066 106.924C92.7005 105.671 92.8975 104.399 92.8975 103.11C92.8975 101.821 92.6826 100.568 92.2529 99.3506C91.859 98.0973 91.2145 96.9873 90.3193 96.0205C89.4242 95.0537 88.2962 94.5345 86.9355 94.4629H71.6816C70.321 94.5345 69.193 95.0537 68.2979 96.0205C67.4027 96.9873 66.7402 98.0973 66.3105 99.3506C65.9167 100.568 65.7197 101.821 65.7197 103.11C65.7197 104.399 65.9167 105.671 66.3105 106.924C66.7044 108.177 67.349 109.287 68.2441 110.254C69.1751 111.185 70.321 111.686 71.6816 111.758H86.9355ZM115.832 116.108C114.185 113.638 112.538 110.397 110.891 106.387L104.982 91.1328C104.803 90.7389 104.696 90.3092 104.66 89.8438C104.589 88.8411 104.875 87.9818 105.52 87.2656C106.2 86.5495 107.059 86.1914 108.098 86.1914C109.208 86.1914 110.031 86.4421 110.568 86.9434C111.141 87.4089 111.607 88.0176 111.965 88.7695L117.067 102.734C117.64 104.202 118.195 105.599 118.732 106.924C119.305 108.213 119.932 109.395 120.612 110.469C121.293 111.543 122.062 112.116 122.922 112.188C123.745 112.116 124.479 111.543 125.124 110.469C125.84 109.395 126.467 108.213 127.004 106.924C127.577 105.599 128.15 104.202 128.723 102.734L133.718 88.7695C134.076 88.0176 134.523 87.4089 135.061 86.9434C135.633 86.4421 136.511 86.1914 137.692 86.1914C138.731 86.1914 139.572 86.5495 140.217 87.2656C140.897 87.9818 141.201 88.8411 141.13 89.8438C141.094 90.3092 140.987 90.7389 140.808 91.1328L134.899 106.387C133.252 110.469 131.605 113.727 129.958 116.162C128.347 118.561 126.001 119.779 122.922 119.814C119.807 119.779 117.443 118.543 115.832 116.108ZM158.747 110.63C158.747 109.627 159.087 108.786 159.768 108.105C160.484 107.389 161.343 107.031 162.346 107.031H170.563L169.167 103.057C168.594 101.589 168.021 100.21 167.448 98.9209C166.911 97.596 166.285 96.3965 165.568 95.3223C164.924 94.248 164.19 93.6751 163.366 93.6035C162.507 93.6751 161.737 94.248 161.057 95.3223C160.376 96.3965 159.75 97.596 159.177 98.9209C158.64 100.21 158.085 101.589 157.512 103.057L152.409 117.021C152.051 117.773 151.586 118.4 151.013 118.901C150.476 119.367 149.652 119.6 148.542 119.6C147.504 119.6 146.644 119.242 145.964 118.525C145.319 117.809 145.033 116.95 145.104 115.947C145.14 115.482 145.248 115.052 145.427 114.658L151.335 99.4043C152.982 95.3939 154.629 92.1533 156.276 89.6826C157.888 87.2477 160.251 86.0124 163.366 85.9766C166.446 86.0124 168.791 87.2477 170.402 89.6826C172.049 92.0817 173.697 95.3223 175.344 99.4043L181.252 114.658C181.431 115.052 181.538 115.482 181.574 115.947C181.646 116.95 181.341 117.809 180.661 118.525C180.017 119.242 179.175 119.6 178.137 119.6C176.955 119.6 176.078 119.367 175.505 118.901C174.968 118.4 174.52 117.773 174.162 117.021L173.142 114.229H162.346C161.343 114.229 160.502 113.87 159.821 113.154C159.105 112.474 158.747 111.632 158.747 110.63Z" fill="white"/>
<circle cx="159" cy="177" r="50" fill="#272727"/>
<path d="M159 137C151.089 137 143.355 139.346 136.777 143.741C130.199 148.136 125.072 154.384 122.045 161.693C119.017 169.002 118.225 177.044 119.769 184.804C121.312 192.563 125.122 199.69 130.716 205.284C136.31 210.878 143.437 214.688 151.196 216.231C158.956 217.775 166.998 216.983 174.307 213.955C181.616 210.928 187.864 205.801 192.259 199.223C196.654 192.645 199 184.911 199 177C198.989 166.395 194.771 156.227 187.272 148.728C179.773 141.229 169.605 137.011 159 137ZM159 210.846C152.306 210.846 145.762 208.861 140.196 205.142C134.63 201.423 130.292 196.137 127.73 189.952C125.169 183.768 124.498 176.962 125.804 170.397C127.11 163.831 130.334 157.801 135.067 153.067C139.801 148.334 145.831 145.11 152.397 143.804C158.962 142.498 165.768 143.168 171.952 145.73C178.137 148.292 183.423 152.63 187.142 158.196C190.861 163.762 192.846 170.306 192.846 177C192.836 185.973 189.267 194.576 182.922 200.922C176.576 207.267 167.973 210.836 159 210.846ZM177.462 177C177.462 177.816 177.137 178.599 176.56 179.176C175.983 179.753 175.201 180.077 174.385 180.077H162.077V192.385C162.077 193.201 161.753 193.983 161.176 194.56C160.599 195.137 159.816 195.462 159 195.462C158.184 195.462 157.401 195.137 156.824 194.56C156.247 193.983 155.923 193.201 155.923 192.385V180.077H143.615C142.799 180.077 142.017 179.753 141.44 179.176C140.863 178.599 140.538 177.816 140.538 177C140.538 176.184 140.863 175.401 141.44 174.824C142.017 174.247 142.799 173.923 143.615 173.923H155.923V161.615C155.923 160.799 156.247 160.017 156.824 159.44C157.401 158.863 158.184 158.538 159 158.538C159.816 158.538 160.599 158.863 161.176 159.44C161.753 160.017 162.077 160.799 162.077 161.615V173.923H174.385C175.201 173.923 175.983 174.247 176.56 174.824C177.137 175.401 177.462 176.184 177.462 177Z" fill="white"/>
</svg>
